<svg fill="none" viewBox="0 0 200 200" xmlns="http://www.w3.org/2000/svg"><circle cx="100" cy="100" fill="#e21d48" r="100"/><g fill="#fff"><path d="m141.309 84.048c4.313-3.633 8.501-9.08 9.719-16.957 0 0 3.977 19.558-13.33 33.072-3.341 2.607-7.046 4.171-10.821 5.764a127.586 127.586 0 0 0 -4.144 1.807l-.469.218c-4.364 2.023-8.628 4-11.643 7.948a13.309 13.309 0 0 0 -2.407 5.055c-.119.507-.862 5.263-.421 5.37-.001 0-18.24-4.437-23.311-19.438-3.165-9.361.254-19.2 3.272-25.273.95-1.912 2.02-3.772 3.309-5.48.527-.699 1.117-1.37 1.71-2.044 1.204-1.368 2.42-2.75 3.144-4.404.775-1.767 1.395-4.72-.644-5.822-1.546-.835-3.813-.433-5.047.838-1.545 1.592-2.503 3.837-1.595 5.298 0 0-3.995-2.068-2.075-6.965.049-.124-.127-.574-.269-.936-.075-.193-.14-.36-.156-.438a7.403 7.403 0 0 1 .103-3.412c.822-3.002 3.327-4.73 5.924-6.087 1.396-.729 3.934-2.368 4.715-4.988 0 0 .365 1.678-.114 3.56 0 0 4.974-2.929 4.051-9.357 0 0 1.747 4.802.017 8.587-.022.048-.04.09-.057.132-.025.057-.047.109-.073.16l-.017.028a.273.273 0 0 0 -.019.03 8.381 8.381 0 0 1 -2.578 3.155s5.203-.841 9.71 3.942c4.507 4.782 4.737 13.226 2.355 18.303l-.922 2.627s5.148-3.29 7.607-5.357c2.458-2.066 15.6-15.995 6.993-30.535 0 0 10.449 8.915 7.222 22.117-1.753 7.17-4.964 11.176-7.535 13.353 4.3-3.236 10.598-10.105 10.258-22.543-.164-5.953-1.559-12.16-4.574-17.323-3.004-5.145-7.982-9.973-16.13-13.053 0 0 18.215 2.759 26.587 19.91a299.536 299.536 0 0 0 1.891 4.682c.792 2.397 1.397 5.028 1.775 7.904.261 3.49-.005 7.943-1.726 12.963 0 0 8.665-13.775-1.786-31.99 0 0 5.885 7.531 8.056 17.38.757 3.43.915 7.087.55 10.615-.514 4.976-2.194 11.805-7.105 17.584zm-47.92-29.096c.148-.072.267-.13.343-.173 1.737-.995 2.507-1.845 2.507-1.846-1.038 1.07-3.65 2.105-3.65 2.105-4.592 2.296-3.535 5.51-3.535 5.51l-.043.153c3.107-1.215 1.541-3.559 1.541-3.559.634-1.124 2.101-1.834 2.837-2.19z"/><path d="m99.581 35.58c2.547 5.225 3.03 9.071 2.803 11.535-.348 3.79-2.054 5.34-2.054 5.34 3.804-1.493 3.746-6.486 3.746-6.486.289-6.314-4.495-10.39-4.495-10.39zm9.794 94.011c1.738 2.443 5.221 5.88 11.78 8.079a27.794 27.794 0 0 1 -6.251 4.952l-9.387-9.725s7.147 9.819-3.083 17.612c-10.996 8.378-6.81 15.228-6.81 15.228-3.765-4.859.472-13.117 2.504-16.812l.347-.626c.996-1.792 1.927-3.468 2.166-5.617.261-2.341.044-5.634-1.803-9.557-.895-1.899-2.063-3.397-3.351-4.886-.496-.497-8.367-8.387-12.268-13.278-4.03-5.052-15.167-11.223-15.167-11.223-2.037-.996-4.018-2.119-5.882-3.575-12.177-9.507-13.816-21.998-13.72-28.573-.04-2.74.389-4.499.389-4.499 1.165 7.537 5.053 12.83 9.165 16.457-4.596-5.672-6.222-12.249-6.721-17.084-.366-3.528-.208-7.185.549-10.615 2.17-9.849 8.056-17.38 8.056-17.38-10.451 18.216-1.788 31.991-1.788 31.991-1.72-5.02-1.986-9.474-1.725-12.963.378-2.876.983-5.507 1.776-7.904.194-.468.963-2.337 1.89-4.681 8.372-17.154 26.589-19.912 26.589-19.912-8.148 3.08-13.126 7.908-16.13 13.053-3.016 5.163-4.41 11.37-4.574 17.323-.34 12.438 5.957 19.307 10.258 22.543-2.572-2.177-5.783-6.182-7.535-13.353-3.228-13.202 7.222-22.117 7.222-22.117-8.607 14.54 4.534 28.469 6.993 30.535 1.254 1.055 3.19 2.414 4.793 3.499a41.47 41.47 0 0 0 -2.244 3.976c-2.379 4.791-3.883 9.794-4.508 15.135-1.378 11.79 4.732 19.307 6.75 21.51 4.03 4.403 11.21 10.409 21.725 12.588l-.004-.101z"/><path d="m92.053 156.071c1.076-3.422 2.751-6.527 4.496-9.657.753-1.352 1.408-2.793 1.537-4.351.162-1.97-.102-4.757-1.753-8.126-.431-.878-2.63-4.283-5.384-6.903-1.13 3.395-4.45 7.427-12.923 10.636a27.63 27.63 0 0 0 9.117 6.373c2.237-1.555 4.35-4.07 5.177-8.19 0 0 .573 3.338-.346 6.818-.296 1.124-.773 2.109-1.257 3.108a32.41 32.41 0 0 0 -.764 1.658c-2.221 5.339-2.297 9.94-2.297 9.94 0 15.669 16.005 17.623 16.005 17.623-9.53-3.975-14.223-10.62-11.608-18.929z"/><path d="m77.105 136.14c6.916-.976 10.551-6.486 10.551-6.486-8.36 4.936-12.395 2.64-12.395 2.64.692 2.87 1.844 3.846 1.844 3.846zm45.241 0c-5.648-.746-11.7-6.486-11.7-6.486 8.415 4.649 13.544 2.64 13.544 2.64-.692 2.87-1.844 3.846-1.844 3.846z"/></g></svg>