<svg xmlns="http://www.w3.org/2000/svg" width="320" height="320" fill="none" viewBox="0 0 320 320">
  <rect width="320" height="320" fill="#E11D48" rx="160"/>
  <g fill="#fff">
    <path d="M226.095 134.477c6.901-5.814 13.602-14.528 15.55-27.131 0 0 6.363 31.293-21.328 52.914-5.345 4.173-11.274 6.674-17.314 9.224-2.203.929-4.421 1.865-6.63 2.89l-.751.349c-6.982 3.237-13.804 6.401-18.628 12.718-1.842 2.413-3.159 5.131-3.851 8.087-.19.812-1.38 8.42-.674 8.592-.002 0-29.183-7.1-37.298-31.1-5.064-14.978.406-30.72 5.236-40.437 1.52-3.059 3.23-6.035 5.294-8.769.843-1.118 1.787-2.191 2.737-3.27 1.925-2.189 3.871-4.399 5.03-7.046 1.239-2.828 2.231-7.553-1.031-9.315-2.473-1.336-6.101-.693-8.075 1.34-2.472 2.547-4.006 6.139-2.552 8.476 0 0-6.393-3.307-3.319-11.144.077-.197-.205-.918-.431-1.496-.121-.309-.225-.576-.251-.702a11.85 11.85 0 0 1 .166-5.458c1.315-4.805 5.322-7.57 9.477-9.74 2.235-1.166 6.295-3.789 7.544-7.98 0 0 .585 2.683-.181 5.697 0 0 7.957-4.687 6.482-14.972 0 0 2.794 7.682.026 13.739a5.722 5.722 0 0 0-.091.21c-.039.091-.074.175-.116.256l-.028.046-.03.049c-.826 1.753-2.108 3.522-4.125 5.047 0 0 8.325-1.346 15.536 6.306 7.211 7.653 7.58 21.163 3.768 29.285l-1.476 4.204s8.238-5.265 12.172-8.571c3.933-3.306 24.96-25.592 11.189-48.857 0 0 16.718 14.265 11.555 35.387-2.804 11.474-7.942 17.882-12.057 21.366 6.881-5.179 16.958-16.169 16.413-36.07-.262-9.525-2.493-19.455-7.318-27.717-4.807-8.23-12.771-15.956-25.808-20.884 0 0 29.144 4.414 42.539 31.857a500.233 500.233 0 0 0 3.026 7.49c1.267 3.836 2.235 8.045 2.841 12.646.417 5.584-.01 12.71-2.762 20.741 0 0 13.864-22.04-2.858-51.183 0 0 9.416 12.05 12.889 27.808 1.212 5.487 1.465 11.339.88 16.984-.822 7.961-3.51 18.888-11.367 28.134Zm-76.672-46.555c.237-.114.426-.206.548-.275 2.779-1.593 4.011-2.953 4.011-2.955-1.66 1.714-5.839 3.368-5.839 3.368-7.347 3.674-5.657 8.816-5.657 8.816l-.068.246c4.971-1.944 2.466-5.694 2.466-5.694 1.015-1.799 3.362-2.935 4.539-3.505Z"/>
    <path d="M159.33 56.928c4.075 8.36 4.848 14.514 4.485 18.456-.558 6.064-3.286 8.544-3.286 8.544 6.086-2.388 5.994-10.378 5.994-10.378.461-10.102-7.193-16.622-7.193-16.622ZM175 207.346c2.781 3.909 8.354 9.408 18.849 12.926a44.52 44.52 0 0 1-10.002 7.924l-15.019-15.561s11.434 15.71-4.934 28.179c-17.593 13.405-10.895 24.366-10.895 24.366-6.025-7.775.754-20.987 4.006-26.899.185-.338.371-.672.555-1.003 1.593-2.867 3.084-5.548 3.466-8.987.417-3.746.071-9.015-2.884-15.291-1.432-3.039-3.301-5.436-5.363-7.818-.794-.794-13.386-13.419-19.629-21.245-6.448-8.082-24.267-17.957-24.267-17.957-3.258-1.593-6.428-3.389-9.412-5.72-19.482-15.21-22.104-35.196-21.95-45.717-.064-4.382.62-7.197.62-7.197 1.865 12.059 8.087 20.528 14.665 26.331-7.354-9.075-9.956-19.599-10.754-27.334-.585-5.645-.331-11.497.88-16.984C86.402 73.6 95.82 61.55 95.82 61.55c-16.721 29.144-2.858 51.183-2.858 51.183-2.752-8.031-3.178-15.157-2.76-20.74.604-4.602 1.573-8.811 2.84-12.647a528.5 528.5 0 0 0 3.026-7.49C109.462 44.414 138.606 40 138.606 40c-13.036 4.928-21.001 12.653-25.808 20.884-4.826 8.262-7.056 18.192-7.319 27.717-.544 19.901 9.533 30.891 16.414 36.07-4.115-3.484-9.253-9.892-12.057-21.366-5.164-21.122 11.555-35.387 11.555-35.387-13.771 23.265 7.256 45.551 11.189 48.857 2.007 1.687 5.105 3.861 7.67 5.597a66.52 66.52 0 0 0-3.591 6.363c-3.806 7.665-6.212 15.669-7.212 24.216-2.206 18.863 7.571 30.891 10.799 34.415 6.449 7.046 17.938 16.654 34.76 20.141l-.006-.161Z"/>
    <path d="M147.285 249.714c1.722-5.476 4.402-10.443 7.193-15.451 1.206-2.164 2.253-4.469 2.459-6.963.26-3.151-.163-7.61-2.804-13-.69-1.406-4.208-6.853-8.614-11.046-1.808 5.433-7.119 11.884-20.677 17.018 3.412 3.616 8.207 7.43 14.587 10.197 3.58-2.488 6.958-6.512 8.283-13.104 0 0 .916 5.341-.553 10.908-.475 1.798-1.238 3.375-2.012 4.974-.419.864-.841 1.735-1.222 2.652-3.554 8.543-3.675 15.904-3.675 15.904 0 25.071 25.607 28.197 25.607 28.197-15.246-6.36-22.756-16.992-18.572-30.286Z"/>
    <path d="M123.368 217.824c11.065-1.561 16.882-10.377 16.882-10.377-13.378 7.898-19.833 4.224-19.833 4.224 1.107 4.592 2.951 6.153 2.951 6.153Zm72.386 0c-9.037-1.194-18.72-10.377-18.72-10.377 13.464 7.439 21.67 4.224 21.67 4.224-1.106 4.592-2.95 6.153-2.95 6.153Z"/>
  </g>
</svg>
